<svg width="17" height="20" viewBox="0 0 17 20" fill="none" xmlns="http://www.w3.org/2000/svg">
<g clip-path="url(#clip0_187_3801)">
<path d="M14.0397 19.2C12.9557 20.252 11.7597 20.088 10.6197 19.592C9.40765 19.086 8.29965 19.054 7.01965 19.592C5.42565 20.28 4.57965 20.08 3.61965 19.2C-1.80035 13.62 -1.00035 5.12 5.15965 4.8C6.65365 4.88 7.69965 5.626 8.57965 5.688C9.88765 5.422 11.1397 4.66001 12.5397 4.76001C14.2217 4.896 15.4797 5.56 16.3197 6.754C12.8597 8.83399 13.6797 13.394 16.8577 14.674C16.2217 16.344 15.4057 17.994 14.0377 19.214L14.0397 19.2ZM8.45965 4.74001C8.29765 2.26001 10.3077 0.220019 12.6197 0.0200195C12.9377 2.88001 10.0196 5.02 8.45965 4.74001Z" fill="#101623"/>
</g>
<defs>
<clipPath id="clip0_187_3801">
<rect width="16.84" height="20" fill="white"/>
</clipPath>
</defs>
</svg>
