<svg width="24" height="25" viewBox="0 0 24 25" fill="none" xmlns="http://www.w3.org/2000/svg">
<path d="M22.5015 12.7332C22.5015 11.8699 22.43 11.2399 22.2753 10.5865H12.2158V14.4832H18.1205C18.0015 15.4515 17.3587 16.9099 15.9301 17.8898L15.91 18.0203L19.0907 20.435L19.311 20.4565C21.3348 18.6249 22.5015 15.9298 22.5015 12.7332Z" fill="#4285F4"/>
<path d="M12.215 23C15.1078 23 17.5363 22.0666 19.3102 20.4566L15.9292 17.8898C15.0245 18.5082 13.8102 18.9399 12.215 18.9399C9.38167 18.9399 6.97693 17.1082 6.11971 14.5765L5.99406 14.587L2.68681 17.0954L2.64355 17.2132C4.40543 20.6432 8.02448 23 12.215 23Z" fill="#34A853"/>
<path d="M6.11997 14.5766C5.89379 13.9233 5.76289 13.2232 5.76289 12.4999C5.76289 11.7765 5.89379 11.0766 6.10807 10.4232L6.10208 10.2841L2.75337 7.73547L2.64381 7.78655C1.91765 9.2099 1.50098 10.8083 1.50098 12.4999C1.50098 14.1916 1.91765 15.7899 2.64381 17.2132L6.11997 14.5766Z" fill="#FBBC05"/>
<path d="M12.215 6.05997C14.2269 6.05997 15.584 6.91163 16.3579 7.62335L19.3817 4.73C17.5246 3.03834 15.1078 2 12.215 2C8.02451 2 4.40544 4.35665 2.64355 7.78662L6.10783 10.4233C6.97696 7.89166 9.38171 6.05997 12.215 6.05997Z" fill="#EB4335"/>
</svg>
